<svg width="26" height="26" viewBox="0 0 26 26" fill="none" xmlns="http://www.w3.org/2000/svg">
<path d="M13 3C7.5 3 3 7.5 3 13C3 18.5 7.5 23 13 23C18.5 23 23 18.5 23 13C23 7.5 18.55 3 13 3ZM17.6008 17.45C17.4008 17.7492 17.0508 17.85 16.75 17.65C14.4 16.2 11.45 15.8992 7.94917 16.6992C7.60083 16.8008 7.3 16.55 7.2 16.25C7.1 15.8992 7.35 15.6 7.65 15.5C11.45 14.6492 14.75 15 17.35 16.6C17.7 16.75 17.7492 17.1492 17.6008 17.45ZM18.8008 14.7C18.55 15.05 18.1 15.2 17.7492 14.95C15.05 13.3 10.95 12.8 7.8 13.8C7.40083 13.9 6.95 13.7 6.85 13.3C6.75 12.9 6.95 12.4492 7.35 12.3492C11 11.25 15.5 11.8008 18.6 13.7C18.9008 13.8508 19.05 14.35 18.8008 14.7ZM18.9008 11.9C15.7 10 10.35 9.8 7.3 10.7508C6.8 10.9 6.3 10.6 6.15 10.15C6 9.64917 6.3 9.15 6.75 8.99917C10.3 7.94917 16.15 8.14917 19.8508 10.35C20.3 10.6 20.45 11.2 20.2 11.65C19.9508 12.0008 19.35 12.1492 18.9008 11.9Z" fill="white"/>
</svg>
