<svg width="26" height="26" viewBox="0 0 26 26" fill="none" xmlns="http://www.w3.org/2000/svg">
<path d="M12.9922 4.79329C15.6656 4.79329 15.9822 4.80502 17.0336 4.85192C18.0108 4.89491 18.5384 5.05907 18.8902 5.19587C19.3553 5.37566 19.6914 5.59454 20.0393 5.9424C20.3911 6.29417 20.606 6.6264 20.7858 7.09151C20.9226 7.44328 21.0868 7.97484 21.1298 8.94807C21.1767 10.0034 21.1884 10.32 21.1884 12.9895C21.1884 15.6629 21.1767 15.9795 21.1298 17.0309C21.0868 18.0081 20.9226 18.5357 20.7858 18.8875C20.606 19.3526 20.3871 19.6887 20.0393 20.0366C19.6875 20.3884 19.3553 20.6033 18.8902 20.7831C18.5384 20.9199 18.0068 21.0841 17.0336 21.1271C15.9783 21.174 15.6617 21.1857 12.9922 21.1857C10.3187 21.1857 10.0022 21.174 8.95076 21.1271C7.97363 21.0841 7.44597 20.9199 7.0942 20.7831C6.62909 20.6033 6.29295 20.3845 5.94509 20.0366C5.59332 19.6848 5.37835 19.3526 5.19856 18.8875C5.06176 18.5357 4.8976 18.0042 4.85461 17.0309C4.80771 15.9756 4.79598 15.659 4.79598 12.9895C4.79598 10.3161 4.80771 9.99947 4.85461 8.94807C4.8976 7.97093 5.06176 7.44328 5.19856 7.09151C5.37835 6.6264 5.59723 6.29026 5.94509 5.9424C6.29686 5.59063 6.62909 5.37566 7.0942 5.19587C7.44597 5.05907 7.97753 4.89491 8.95076 4.85192C10.0022 4.80502 10.3187 4.79329 12.9922 4.79329ZM12.9922 2.99146C10.2758 2.99146 9.93571 3.00318 8.86868 3.05008C7.80556 3.09699 7.07466 3.26896 6.44148 3.5152C5.78093 3.77316 5.22201 4.11321 4.667 4.67213C4.10808 5.22714 3.76804 5.78606 3.51007 6.4427C3.26383 7.07979 3.09186 7.80678 3.04496 8.8699C2.99805 9.94084 2.98633 10.2809 2.98633 12.9973C2.98633 15.7138 2.99805 16.0538 3.04496 17.1208C3.09186 18.1839 3.26383 18.9148 3.51007 19.548C3.76804 20.2086 4.10808 20.7675 4.667 21.3225C5.22201 21.8775 5.78093 22.2215 6.43757 22.4755C7.07466 22.7218 7.80165 22.8937 8.86477 22.9406C9.9318 22.9875 10.2718 22.9993 12.9883 22.9993C15.7047 22.9993 16.0448 22.9875 17.1118 22.9406C18.1749 22.8937 18.9058 22.7218 19.539 22.4755C20.1956 22.2215 20.7546 21.8775 21.3096 21.3225C21.8646 20.7675 22.2085 20.2086 22.4626 19.5519C22.7088 18.9148 22.8808 18.1879 22.9277 17.1247C22.9746 16.0577 22.9863 15.7177 22.9863 13.0012C22.9863 10.2848 22.9746 9.94475 22.9277 8.87772C22.8808 7.81459 22.7088 7.0837 22.4626 6.45051C22.2163 5.78606 21.8763 5.22714 21.3174 4.67213C20.7624 4.11711 20.2034 3.77316 19.5468 3.51911C18.9097 3.27287 18.1827 3.10089 17.1196 3.05399C16.0487 3.00318 15.7086 2.99146 12.9922 2.99146Z" fill="white"/>
<path d="M12.9923 7.85754C10.1547 7.85754 7.85254 10.1597 7.85254 12.9973C7.85254 15.8349 10.1547 18.137 12.9923 18.137C15.8299 18.137 18.132 15.8349 18.132 12.9973C18.132 10.1597 15.8299 7.85754 12.9923 7.85754ZM12.9923 16.3313C11.1513 16.3313 9.65828 14.8382 9.65828 12.9973C9.65828 11.1564 11.1513 9.66329 12.9923 9.66329C14.8332 9.66329 16.3263 11.1564 16.3263 12.9973C16.3263 14.8382 14.8332 16.3313 12.9923 16.3313Z" fill="white"/>
<path d="M19.5346 7.65427C19.5346 8.31872 18.9952 8.85419 18.3347 8.85419C17.6702 8.85419 17.1348 8.31481 17.1348 7.65427C17.1348 6.98982 17.6741 6.45435 18.3347 6.45435C18.9952 6.45435 19.5346 6.99373 19.5346 7.65427Z" fill="white"/>
</svg>
