<svg width="26" height="26" viewBox="0 0 26 26" fill="none" xmlns="http://www.w3.org/2000/svg">
<path d="M12.9808 23.0815C10.9032 23.0815 8.8826 22.4314 7.16233 21.1888C6.09315 20.4197 5.18678 19.4465 4.49548 18.3253C3.80417 17.2042 3.3416 15.9574 3.13441 14.6567C2.9191 13.3565 2.96282 12.0265 3.26306 10.7433C3.56331 9.46001 4.11416 8.24873 4.88397 7.17902C5.64628 6.10648 6.61446 5.19642 7.73207 4.50186C8.84968 3.80731 10.0944 3.34216 11.3936 3.13353C12.689 2.91857 14.0142 2.96351 15.2921 3.26574C16.57 3.56798 17.775 4.12147 18.8369 4.89397C19.9061 5.66325 20.8125 6.63646 21.5039 7.75754C22.1954 8.87862 22.6581 10.1254 22.8657 11.4261C23.0809 12.7265 23.0371 14.0565 22.7369 15.3399C22.4367 16.6233 21.8859 17.8347 21.1161 18.9046C20.3536 19.977 19.3854 20.887 18.2678 21.5815C17.1502 22.276 15.9056 22.7413 14.6065 22.9501C14.0635 23.038 13.5196 23.0815 12.9808 23.0815ZM7.56394 20.6333C8.55286 21.3525 9.67493 21.8679 10.8649 22.1494C12.0548 22.4309 13.2889 22.473 14.4952 22.2732C15.7052 22.0785 16.8644 21.645 17.9052 20.998C18.9461 20.3511 19.8478 19.5035 20.558 18.5047C23.5559 14.3178 22.6038 8.46085 18.4345 5.4487C17.4455 4.72948 16.3235 4.21411 15.1335 3.93257C13.9436 3.65103 12.7095 3.60894 11.5032 3.80876C10.2934 4.00368 9.1344 4.43723 8.09371 5.0842C7.05301 5.73117 6.15136 6.57863 5.44122 7.57729C2.44246 11.7642 3.39547 17.6211 7.56394 20.6333ZM16.4381 17.6613C16.7309 17.5808 16.9976 17.4251 17.2116 17.2096C17.4256 16.9941 17.5795 16.7264 17.658 16.433L17.7099 16.2523L17.7166 11.4102C17.7216 7.78395 17.7166 6.54563 17.6965 6.47785C17.6778 6.41135 17.644 6.35007 17.5977 6.2988C17.5281 6.25704 17.448 6.23586 17.3668 6.23772C17.3057 6.23772 17.0949 6.267 16.8983 6.30298C16.0272 6.46196 10.894 7.48358 10.8062 7.51621C10.6638 7.57301 10.5457 7.67778 10.4723 7.8124L10.418 7.9195C10.418 7.9195 10.392 15.5093 10.3527 15.5946C10.2887 15.7286 10.1763 15.8332 10.0381 15.8875C9.86955 15.9313 9.69961 15.9695 9.52853 16.0021C8.49855 16.2071 8.11617 16.3544 7.79237 16.6723C7.60829 16.853 7.47274 17.099 7.41334 17.3576C7.35728 17.6044 7.37569 17.9742 7.45601 18.1993C7.53968 18.4344 7.67523 18.6352 7.85177 18.7934C8.01242 18.9172 8.20235 19.0092 8.41571 19.0644C8.88678 19.1849 9.76951 19.0511 10.2213 18.79C10.44 18.6527 10.6296 18.4739 10.7794 18.2637C10.8296 18.1893 10.9049 18.0395 10.9468 17.9299C11.094 17.5483 11.0982 10.7492 11.1174 10.6639C11.1303 10.5955 11.1623 10.5322 11.2097 10.4813C11.2571 10.4303 11.3179 10.3938 11.3852 10.3761C11.5082 10.3434 16.4515 9.36617 16.5912 9.34692C16.7133 9.33019 16.8288 9.36952 16.8924 9.44733C16.9291 9.46593 16.9605 9.49358 16.9836 9.52765C17.0238 9.58706 17.0263 9.70587 17.0321 11.8579C17.0388 14.3354 17.0422 14.2776 16.9075 14.4341C16.8096 14.5479 16.6874 14.5922 16.1845 14.6943C15.4198 14.8508 15.1587 14.9244 14.8659 15.0675C14.5003 15.2457 14.2978 15.4415 14.1405 15.767C14.0381 15.9614 13.9857 16.1782 13.9882 16.3979C13.989 16.807 14.1296 17.1266 14.4484 17.4396C14.4777 17.468 14.5061 17.4948 14.5354 17.5207C14.696 17.6446 14.8592 17.7199 15.065 17.7667C15.3746 17.8353 16.0055 17.7876 16.4381 17.6613Z" fill="black"/>
</svg>
