<svg width="26" height="26" viewBox="0 0 26 26" fill="none" xmlns="http://www.w3.org/2000/svg">
<path d="M24.5198 7.48206C24.3865 7.00441 24.1322 6.56922 23.7816 6.21856C23.4309 5.8679 22.9957 5.61362 22.5181 5.48032C20.7253 5.00001 13.5102 5.00001 13.5102 5.00001C13.5102 5.00001 6.31335 4.99043 4.50239 5.48032C4.02473 5.61362 3.58954 5.8679 3.23888 6.21856C2.88822 6.56922 2.63395 7.00441 2.50064 7.48206C2.16081 9.31748 1.99327 11.1806 2.00021 13.0473C1.99458 14.9068 2.16211 16.7629 2.50064 18.5914C2.63395 19.069 2.88822 19.5042 3.23888 19.8549C3.58954 20.2055 4.02473 20.4598 4.50239 20.5931C6.29322 21.0744 13.5102 21.0744 13.5102 21.0744C13.5102 21.0744 20.7062 21.0744 22.5181 20.5931C22.9957 20.4598 23.4309 20.2055 23.7816 19.8549C24.1322 19.5042 24.3865 19.069 24.5198 18.5914C24.8513 16.7622 25.0118 14.9062 24.9992 13.0473C25.0131 11.1813 24.8526 9.31815 24.5198 7.48206ZM11.2075 16.4899V9.59405L17.2127 13.0473L11.2075 16.4899Z" fill="black"/>
</svg>
