<svg width="26" height="26" viewBox="0 0 26 26" fill="none" xmlns="http://www.w3.org/2000/svg">
<path d="M18.4744 6V8.65378H23.02V6H18.4744ZM7.49147 9.69602V12.3472H12.0362V9.69602H7.49147ZM18.4744 9.69602V12.3472H23.02V9.69602H18.4744ZM7.49147 13.3868V16.0379H12.0362V13.3868H7.49147ZM12.9838 13.3868V16.0379H17.5294V13.3868H12.9838ZM18.4753 13.3868V16.0379H23.02V13.3868H18.4744H18.4753ZM2 17.0793V19.7322H6.54558V17.0784L2 17.0793ZM7.49147 17.0793V19.7322H12.0362V17.0784H7.4906L7.49147 17.0793ZM12.9838 17.0793V19.7322H17.5294V17.0784L12.9838 17.0793ZM18.4753 17.0793V19.7322H23.02V17.0784H18.4744L18.4753 17.0793Z" fill="black"/>
</svg>
