<svg width="26" height="26" viewBox="0 0 26 26" fill="none" xmlns="http://www.w3.org/2000/svg">
<path d="M3.11106 17.7904C3.15851 17.7904 3.19869 17.7514 3.20551 17.6964L3.46349 15.6516L3.20628 13.5603C3.19861 13.5054 3.15851 13.466 3.11106 13.466C3.06237 13.466 3.0209 13.5062 3.01446 13.5603L2.78898 15.6516L3.01446 17.6957C3.0209 17.7506 3.06237 17.7904 3.11106 17.7904Z" fill="black"/>
<path d="M2.26044 17.0127C2.30705 17.0127 2.34485 16.9765 2.35167 16.9223L2.55162 15.6516L2.35167 14.3571C2.34477 14.3046 2.30705 14.2667 2.26044 14.2667C2.21175 14.2667 2.17403 14.3046 2.16713 14.3579L2 15.6517L2.16713 16.9219C2.17403 16.9757 2.21175 17.0127 2.26044 17.0127Z" fill="black"/>
<path d="M4.12843 13.1711C4.12229 13.1046 4.07361 13.0561 4.0132 13.0561C3.95324 13.0561 3.90448 13.1046 3.89889 13.1711L3.68338 15.6517L3.89889 18.0417C3.90448 18.1078 3.95324 18.1557 4.0132 18.1557C4.07361 18.1557 4.12229 18.1078 4.12843 18.0417L4.37223 15.6517L4.12843 13.1711Z" fill="black"/>
<path d="M4.925 18.252C4.99568 18.252 5.05288 18.1938 5.05978 18.1177L5.29016 15.6524L5.05978 13.1026C5.05288 13.026 4.99568 12.9685 4.925 12.9685C4.85331 12.9685 4.79528 13.0261 4.79037 13.103L4.58674 15.6524L4.79037 18.1177C4.79528 18.1938 4.85331 18.252 4.925 18.252Z" fill="black"/>
<path d="M5.84308 18.292C5.92542 18.292 5.99151 18.226 5.99833 18.1378L5.99757 18.1384L6.21453 15.6524L5.99757 13.2867C5.99143 13.1999 5.92542 13.133 5.843 13.133C5.75944 13.133 5.69373 13.1999 5.68875 13.2874L5.49693 15.6525L5.68875 18.1379C5.69381 18.226 5.75951 18.292 5.84308 18.292Z" fill="black"/>
<path d="M7.1468 15.653L6.94325 11.8065C6.93758 11.709 6.8616 11.6312 6.76838 11.6312C6.67584 11.6312 6.60009 11.7089 6.59442 11.8065L6.41425 15.653L6.59442 18.1384C6.60009 18.2364 6.67592 18.3131 6.76838 18.3131C6.86168 18.3131 6.93758 18.2364 6.94325 18.1384L7.1468 15.653Z" fill="black"/>
<path d="M7.70295 18.3171C7.8056 18.3171 7.89078 18.2319 7.89561 18.1232V18.1248L8.0859 15.6536L7.89561 10.9267C7.89078 10.818 7.8056 10.7328 7.70295 10.7328C7.59791 10.7328 7.5135 10.818 7.50783 10.9267L7.34031 15.6536L7.5086 18.124C7.5135 18.2319 7.59791 18.3171 7.70295 18.3171Z" fill="black"/>
<path d="M8.6428 10.3184C8.52719 10.3184 8.43389 10.4133 8.42913 10.533L8.27327 15.6544L8.42913 18.0989C8.43396 18.2179 8.52719 18.3122 8.6428 18.3122C8.75811 18.3122 8.85211 18.2187 8.85617 18.0985V18.0997L9.03304 15.6544L8.85617 10.533C8.85211 10.4125 8.75803 10.3184 8.6428 10.3184Z" fill="black"/>
<path d="M9.59079 18.3171C9.71775 18.3171 9.81888 18.2147 9.82363 18.0828V18.0843L9.98716 15.6545L9.82363 10.361C9.8188 10.2296 9.71775 10.1267 9.59079 10.1267C9.46307 10.1267 9.36041 10.2296 9.35841 10.361L9.21152 15.6545L9.35841 18.0843C9.36041 18.2147 9.46307 18.3171 9.59079 18.3171Z" fill="black"/>
<path d="M10.5466 18.3147C10.6836 18.3147 10.7948 18.2025 10.7989 18.0603V18.0625L10.9494 15.6549L10.7989 10.496C10.7948 10.3539 10.6836 10.2422 10.5466 10.2422C10.4086 10.2422 10.2974 10.3538 10.2934 10.496L10.1611 15.6549L10.2942 18.0614C10.2974 18.2025 10.4086 18.3147 10.5466 18.3147Z" fill="black"/>
<path d="M11.9176 15.6549L11.7813 10.6841C11.778 10.5308 11.658 10.4103 11.5091 10.4103C11.3598 10.4103 11.2397 10.5308 11.2365 10.6851L11.1143 15.6549L11.2365 18.0467C11.2397 18.1988 11.3597 18.3194 11.5091 18.3194C11.6579 18.3194 11.778 18.1988 11.7813 18.0445V18.0467L11.9176 15.6549Z" fill="black"/>
<path d="M12.479 18.3238C12.6372 18.3238 12.7683 18.1922 12.7707 18.0303V18.0316L12.8944 15.6562L12.7707 9.74109C12.7683 9.57863 12.6373 9.44723 12.479 9.44723C12.3208 9.44723 12.1902 9.57925 12.187 9.74193L12.077 15.6538L12.187 18.0317C12.1902 18.1922 12.3208 18.3238 12.479 18.3238Z" fill="black"/>
<path d="M13.4457 8.89078C13.2748 8.89078 13.1362 9.03253 13.1333 9.20534L13.0055 15.6569L13.1341 17.9973C13.1362 18.1679 13.2749 18.3092 13.4457 18.3092C13.614 18.3092 13.7552 18.1678 13.756 17.9944V17.9973L13.8955 15.6569L13.756 9.20534C13.7552 9.03192 13.614 8.89078 13.4457 8.89078Z" fill="black"/>
<path d="M14.3296 18.326C14.3365 18.3266 22.1207 18.3303 22.1707 18.3303C23.7335 18.3303 25 17.0483 25 15.4663C25 13.8851 23.7335 12.6028 22.1707 12.6028C21.7828 12.6028 21.4133 12.6821 21.0763 12.8257C20.8522 10.2443 18.7138 8.21979 16.105 8.21979C15.4673 8.21979 14.8455 8.34721 14.2962 8.56241C14.0825 8.64598 14.0253 8.73215 14.0236 8.89913V17.9872C14.0261 18.1627 14.1599 18.3086 14.3296 18.326Z" fill="black"/>
</svg>
